# xmcd
#
# Track frame offsets:
#	150
#	13664
#	23341
#	33633
#	43800
#	55940
#	66383
#	78850
#	90081
#	103640
#	116798
#	127253
#	136304
#	143160
#	153562
#	162895
#	171314
#	182057
#
# Disc length: 2573 seconds
#
# Revision: 1
# Processed by: cddbd v1.5.2PL0 Copyright (c) Steve Scherf et al.
# Submitted via: audiograbber 1.83.01
#
DISCID=f20a0b12
DTITLE=Faron Young - Four In The Morning
DYEAR=2007
DGENRE=Country
TTITLE0=Wellcome To My World
TTITLE1=Country Girl
TTITLE2=Hello Walls
TTITLE3=Live Fast, Love Hard, Die Young
TTITLE4=Sweet Dreams
TTITLE5=If You Ain´t Lovin´
TTITLE6=For In The Morning
TTITLE7=Your Cheatin´Heart
TTITLE8=Chapel In The Moonlight
TTITLE9=There Goes My Everything
TTITLE10=I Could Never Be Ashamed Of You
TTITLE11=A Heartache For A Keepsake
TTITLE12=Alone With You
TTITLE13=Here Comes My Baby Back Again
TTITLE14=Some Of Those Memories
TTITLE15=Tiger By The Tail
TTITLE16=Memphis
TTITLE17=Cryin´Time
EXTD=
EXTT0=
EXTT1=
EXTT2=
EXTT3=
EXTT4=
EXTT5=
EXTT6=
EXTT7=
EXTT8=
EXTT9=
EXTT10=
EXTT11=
EXTT12=
EXTT13=
EXTT14=
EXTT15=
EXTT16=
EXTT17=
PLAYORDER=
